<?xml version="1.0" encoding="UTF-8" standalone="no"?>
<!-- Created with Inkscape (http://www.inkscape.org/) -->

<svg
   xmlns:dc="http://purl.org/dc/elements/1.1/"
   xmlns:cc="http://creativecommons.org/ns#"
   xmlns:rdf="http://www.w3.org/1999/02/22-rdf-syntax-ns#"
   xmlns:svg="http://www.w3.org/2000/svg"
   xmlns="http://www.w3.org/2000/svg"
   version="1.1"
   width="874"
   height="134"
   id="svg2"
   xml:space="preserve"><metadata
     id="metadata8"><rdf:RDF><cc:Work
         rdf:about=""><dc:format>image/svg+xml</dc:format><dc:type
           rdf:resource="http://purl.org/dc/dcmitype/StillImage" /><dc:title></dc:title></cc:Work></rdf:RDF></metadata><defs
     id="defs6"><clipPath
       id="clipPath16"><path
         d="M 0,540 960,540 960,0 0,0 0,540 z"
         id="path18" /></clipPath></defs><g
     transform="matrix(1.25,0,0,-1.25,0,134)"
     id="g10"><g
       transform="translate(-131.89856,-387.5387)"
       id="g12"><g
         clip-path="url(#clipPath16)"
         id="g14"><g
           transform="translate(173.8755,477.3027)"
           id="g20"><path
             d="m 0,0 c 6.395,0 12.203,-2.182 15.545,-6.389 2.615,-3.198 4.21,-6.389 4.646,-10.897 l 19.175,0 C 38.495,-9.146 35.444,-1.015 29.49,5.084 21.787,12.928 11.043,17.001 0,17.001 c -11.038,0 -21.352,-3.778 -29.196,-11.626 -11.18,-11.185 -12.781,-24.983 -12.781,-41.832 0,-16.854 1.601,-30.651 12.781,-41.835 7.844,-7.841 18.158,-11.472 29.196,-11.472 11.043,0 21.787,4.356 29.49,12.202 5.954,6.104 9.005,14.379 9.876,22.512 l -19.175,0 c -0.436,-4.502 -2.031,-8.133 -4.646,-11.331 -3.342,-4.207 -9.15,-6.532 -15.545,-6.532 -5.954,0 -11.765,2.464 -15.835,6.824 -7.117,7.407 -7.117,20.186 -7.117,29.632 0,9.443 0,22.223 7.117,29.631 C -11.765,-2.469 -5.954,0 0,0"
             id="path22"
             style="fill:#ffffff;fill-opacity:1;fill-rule:nonzero;stroke:none" /></g><g
           transform="translate(282.396,411.3618)"
           id="g24"><path
             d="m 0,0 c -4.069,-4.362 -10.316,-6.829 -16.269,-6.829 -5.955,0 -12.204,2.467 -16.27,6.829 -7.119,7.407 -7.406,20.038 -7.406,29.484 l 47.356,0 C 7.411,20.038 7.118,7.407 0,0 m -16.269,82.939 c -11.04,0 -21.791,-3.775 -29.629,-11.623 -11.189,-11.185 -13.078,-24.983 -13.078,-41.832 0,-16.854 1.889,-30.503 13.078,-41.686 7.838,-7.843 18.589,-11.621 29.629,-11.621 11.039,0 21.786,3.778 29.633,11.621 11.181,11.183 13.071,24.832 13.071,41.686 0,16.849 -1.89,30.647 -13.071,41.832 -7.847,7.848 -18.594,11.623 -29.633,11.623"
             id="path26"
             style="fill:#ffffff;fill-opacity:1;fill-rule:nonzero;stroke:none" /></g><g
           transform="translate(381.6187,412.0845)"
           id="g28"><path
             d="m 0,0 c -3.49,-3.486 -8.57,-5.811 -14.527,-5.811 l -21.354,0 0,69.292 21.354,0 C -8.57,63.481 -3.49,61.153 0,57.669 7.262,50.405 7.406,38.35 7.406,28.909 7.406,19.466 7.262,7.263 0,0 m -14.527,80.332 -40.094,0 0,-102.992 40.094,0 c 11.766,0 22.079,3.925 28.909,11.039 10.604,10.898 12.053,26.289 12.053,40.53 0,14.233 -1.449,29.483 -12.053,40.38 -6.83,7.117 -17.143,11.043 -28.909,11.043"
             id="path30"
             style="fill:#ffffff;fill-opacity:1;fill-rule:nonzero;stroke:none" /></g><g
           transform="translate(426.3687,389.4243)"
           id="g32"><path
             d="m 0,0 73.355,0 0,16.996 -54.618,0 0,28.187 48.081,0 0,16.844 -48.081,0 0,23.965 54.618,0 0,17 L 0,102.992 0,0 z"
             id="path34"
             style="fill:#ffffff;fill-opacity:1;fill-rule:nonzero;stroke:none" /></g><g
           transform="translate(569.8906,419.0562)"
           id="g36"><path
             d="m 0,0 -27.017,73.363 -25.274,0 0,-102.995 18.16,0 0,74.372 26.581,-72.92 13.796,0 26.734,72.047 0,-73.499 18.149,0 0,102.995 -23.964,0 L 0,0 z"
             id="path38"
             style="fill:#ffffff;fill-opacity:1;fill-rule:nonzero;stroke:none" /></g><path
           d="m 645.156,389.424 19.023,0 0,102.99 -19.023,0 0,-102.99 z"
           id="path40"
           style="fill:#ffffff;fill-opacity:1;fill-rule:nonzero;stroke:none" /><g
           transform="translate(707.0381,492.416)"
           id="g42"><path
             d="m 0,0 -18.741,0 0,-102.992 66.53,0 0,17.724 L 0,-85.268 0,0 z"
             id="path44"
             style="fill:#ffffff;fill-opacity:1;fill-rule:nonzero;stroke:none" /></g><g
           transform="translate(783.2842,492.416)"
           id="g46"><path
             d="m 0,0 -18.737,0 0,-102.992 66.526,0 0,17.724 L 0,-85.268 0,0 z"
             id="path48"
             style="fill:#ffffff;fill-opacity:1;fill-rule:nonzero;stroke:none" /></g><g
           transform="translate(809.4248,477.2739)"
           id="g50"><path
             d="m 0,0 1.318,0 0,14.033 4.532,0 0,1.109 -10.379,0 0,-1.109 4.529,0 L 0,0 z"
             id="path52"
             style="fill:#ffffff;fill-opacity:1;fill-rule:nonzero;stroke:none" /></g><g
           transform="translate(828.7734,492.416)"
           id="g54"><path
             d="M 0,0 -4.91,-12.85 -9.78,0 l -2.402,0 0,-15.142 1.315,0 0,13.953 0.047,-0.023 5.273,-13.93 1.107,0 5.378,13.885 0.044,0.022 0,-13.907 1.318,0 L 2.3,0 0,0 z"
             id="path56"
             style="fill:#ffffff;fill-opacity:1;fill-rule:nonzero;stroke:none" /></g></g></g></g></svg>